<svg xmlns="http://www.w3.org/2000/svg" style="display:none" xmlns:c2pa="http://c2pa.org/manifest"><metadata><c2pa:manifest>AAAWgmp1bWIAAAAeanVtZGMycGEAEQAQgAAAqgA4m3EDYzJwYQAAABZcanVtYgAAAEdqdW1kYzJtYQARABCAAACqADibcQN1cm46YzJwYTphYTg0YTg1Yi0xNTU5LTQwOWUtOTJkZC1iN2U4NTJiMGMxYjAAAAADl2p1bWIAAAApanVtZGMyYXMAEQAQgAAAqgA4m3EDYzJwYS5hc3NlcnRpb25zAAAAALxqdW1iAAAARGp1bWRjYm9yABEAEIAAAKoAOJtxE2MycGEuaW5ncmVkaWVudC52MwAAAAAYYzJzaJ6fvOxjoOKF1ALJqVTde2gAAABwY2JvcqNpZGM6Zm9ybWF0bWltYWdlL3N2Zyt4bWxqaW5zdGFuY2VJRHgseG1wOmlpZDpjMDdiNzkyOS05YzE1LTQ3NDctYmEyNy1kYjYwYWFiNWE3NzNscmVsYXRpb25zaGlwaHBhcmVudE9mAAAB4mp1bWIAAABBanVtZGNib3IAEQAQgAAAqgA4m3ETYzJwYS5hY3Rpb25zLnYyAAAAABhjMnNo6b9sjVzB13hZ11j7SrxJsAAAAZljYm9yomdhY3Rpb25zgqJmYWN0aW9ua2MycGEub3BlbmVkanBhcmFtZXRlcnOha2luZ3JlZGllbnRzgaJjdXJseC1zZWxmI2p1bWJmPWMycGEuYXNzZXJ0aW9ucy9jMnBhLmluZ3JlZGllbnQudjNkaGFzaFggZVqSvUJ1ulQZIlgGxsIkdRZgB1tbRjFyUjZlONGmT92kZmFjdGlvbngdY29tLmFudGhyb3BpYy5jbGF1ZGUucHJvdmlkZWRqcGFyYW1ldGVyc6F4H2NvbS5hbnRocm9waWMub3JpZ2luLWNvbmZpZGVuY2VndW5rbm93bmtkZXNjcmlwdGlvbnhmQ2xhdWRlIHByb3ZpZGVkIHRoaXMgZmlsZSBhdCB0aGUgcmVxdWVzdCBvZiBhIHVzZXIgYW5kIG1heSBoYXZlIGNyZWF0ZWQgb3IgbW9kaWZpZWQgdGhlIGZpbGUgY29udGVudHMubXNvZnR3YXJlQWdlbnShZG5hbWVmQ2xhdWRlcmFsbEFjdGlvbnNJbmNsdWRlZPUAAADIanVtYgAAAEBqdW1kY2JvcgARABCAAACqADibcRNjMnBhLmhhc2guZGF0YQAAAAAYYzJzaCEpYgww7Ut7fUhiXvPKmDQAAACAY2JvcqVjYWxnZnNoYTI1NmNwYWRNAAAAAAAAAAAAAAAAAGRoYXNoWCAhYduQ2FYCCNMBQzMSotMGXcwgy8GiK/0ZqJFRvBhyBmRuYW1lbmp1bWJmIG1hbmlmZXN0amV4Y2x1c2lvbnOBomVzdGFydBh8Zmxlbmd0aBkeBAAAAj5qdW1iAAAAJ2p1bWRjMmNsABEAEIAAAKoAOJtxA2MycGEuY2xhaW0udjIAAAACD2Nib3KlY2FsZ2ZzaGEyNTZpc2lnbmF0dXJleE1zZWxmI2p1bWJmPS9jMnBhL3VybjpjMnBhOmFhODRhODViLTE1NTktNDA5ZS05MmRkLWI3ZTg1MmIwYzFiMC9jMnBhLnNpZ25hdHVyZWppbnN0YW5jZUlEeCx4bXA6aWlkOmYxMzdkOTYyLWI4YzktNDE0Zi1iNGE3LTE3OGQ5ODE4ZGQ5MHJjcmVhdGVkX2Fzc2VydGlvbnODomN1cmx4LXNlbGYjanVtYmY9YzJwYS5hc3NlcnRpb25zL2MycGEuaW5ncmVkaWVudC52M2RoYXNoWCBlWpK9QnW6VBkiWAbGwiR1FmAHW1tGMXJSNmU40aZP3aJjdXJseCpzZWxmI2p1bWJmPWMycGEuYXNzZXJ0aW9ucy9jMnBhLmFjdGlvbnMudjJkaGFzaFggAVk1SbGNEHRET0ToyjJev9QeFmcmnDpDEfHx4iVE1taiY3VybHgpc2VsZiNqdW1iZj1jMnBhLmFzc2VydGlvbnMvYzJwYS5oYXNoLmRhdGFkaGFzaFgg7EMzerUx+1o/VT/ubjFMUD9LJXbpV7pWCeHOR5AhBFh0Y2xhaW1fZ2VuZXJhdG9yX2luZm+jZG5hbWVvQW50aHJvcGljIEZpbGVzZ3ZlcnNpb25lMS4wLjBrc3BlY1ZlcnNpb25lMi40LjAAABA4anVtYgAAAChqdW1kYzJjcwARABCAAACqADibcQNjMnBhLnNpZ25hdHVyZQAAABAIY2JvctKEWQISogEmGCFZAgowggIGMIIBjaADAgECAhRA5aAK7sI50L64g/oGQgU9Z1UTADAKBggqhkjOPQQDAzBJMRcwFQYDVQQKEw5BbnRocm9waWMsIFBCQzEuMCwGA1UEAxMlQW50aHJvcGljIENvbnRlbnQgQ3JlZGVudGlhbHMgUm9vdCBDQTAeFw0yNjA4MDcxODQzNTZaFw0yODA4MDYxOTQzNTZaMEQxFzAVBgNVBAoTDkFudGhyb3BpYywgUEJDMSkwJwYDVQQDEyBBbnRocm9waWMgQ2xhdWRlIENvbnRlbnQgU2lnbmluZzBZMBMGByqGSM49AgEGCCqGSM49AwEHA0IABJh6CmvLUBgFFNU0vUKlOVtE6djd17L5SuwX0LemFisBM3dkd/3cyjxFA3Qo5S46fX0/ihY0VZ7mfb9KF703t5OjWDBWMA4GA1UdDwEB/wQEAwIHgDAVBgNVHSUEDjAMBgorBgEEAYPoXgIBMAwGA1UdEwEB/wQCMAAwHwYDVR0jBBgwFoAUzlHiBIFOZFsj+OPEz5o+nMHXXMIwCgYIKoZIzj0EAwMDZwAwZAIwMXMdFJ4BetLLVY7ORuE9noqbbAZOZn/aArXyTwFAZfKrPzxF2vPoJNf1+UCdg1XGAjBwX1zd9WGqYkqmL5SFqw1QySjr1zJfpJM9+1rdDwSPLMOPOjKuiXjoU/pUUeG9RwmhY3BhZFkNngAAAAAAAAAAAAAAAAAAAAAAAAAAAAAAAAAAAAAAAAAAAAAAAAAAAAAAAAAAAAAAAAAAAAAAAAAAAAAAAAAAAAAAAAAAAAAAAAAAAAAAAAAAAAAAAAAAAAAAAAAAAAAAAAAAAAAAAAAAAAAAAAAAAAAAAAAAAAAAAAAAAAAAAAAAAAAAAAAAAAAAAAAAAAAAAAAAAAAAAAAAAAAAAAAAAAAAAAAAAAAAAAAAAAAAAAAAAAAAAAAAAAAAAAAAAAAAAAAAAAAAAAAAAAAAAAAAAAAAAAAAAAAAAAAAAAAAAAAAAAAAAAAAAAAAAAAAAAAAAAAAAAAAAAAAAAAAAAAAAAAAAAAAAAAAAAAAAAAAAAAAAAAAAAAAAAAAAAAAAAAAAAAAAAAAAAAAAAAAAAAAAAAAAAAAAAAAAAAAAAAAAAAAAAAAAAAAAAAAAAAAAAAAAAAAAAAAAAAAAAAAAAAAAAAAAAAAAAAAAAAAAAAAAAAAAAAAAAAAAAAAAAAAAAAAAAAAAAAAAAAAAAAAAAAAAAAAAAAAAAAAAAAAAAAAAAAAAAAAAAAAAAAAAAAAAAAAAAAAAAAAAAAAAAAAAAAAAAAAAAAAAAAAAAAAAAAAAAAAAAAAAAAAAAAAAAAAAAAAAAAAAAAAAAAAAAAAAAAAAAAAAAAAAAAAAAAAAAAAAAAAAAAAAAAAAAAAAAAAAAAAAAAAAAAAAAAAAAAAAAAAAAAAAAAAAAAAAAAAAAAAAAAAAAAAAAAAAAAAAAAAAAAAAAAAAAAAAAAAAAAAAAAAAAAAAAAAAAAAAAAAAAAAAAAAAAAAAAAAAAAAAAAAAAAAAAAAAAAAAAAAAAAAAAAAAAAAAAAAAAAAAAAAAAAAAAAAAAAAAAAAAAAAAAAAAAAAAAAAAAAAAAAAAAAAAAAAAAAAAAAAAAAAAAAAAAAAAAAAAAAAAAAAAAAAAAAAAAAAAAAAAAAAAAAAAAAAAAAAAAAAAAAAAAAAAAAAAAAAAAAAAAAAAAAAAAAAAAAAAAAAAAAAAAAAAAAAAAAAAAAAAAAAAAAAAAAAAAAAAAAAAAAAAAAAAAAAAAAAAAAAAAAAAAAAAAAAAAAAAAAAAAAAAAAAAAAAAAAAAAAAAAAAAAAAAAAAAAAAAAAAAAAAAAAAAAAAAAAAAAAAAAAAAAAAAAAAAAAAAAAAAAAAAAAAAAAAAAAAAAAAAAAAAAAAAAAAAAAAAAAAAAAAAAAAAAAAAAAAAAAAAAAAAAAAAAAAAAAAAAAAAAAAAAAAAAAAAAAAAAAAAAAAAAAAAAAAAAAAAAAAAAAAAAAAAAAAAAAAAAAAAAAAAAAAAAAAAAAAAAAAAAAAAAAAAAAAAAAAAAAAAAAAAAAAAAAAAAAAAAAAAAAAAAAAAAAAAAAAAAAAAAAAAAAAAAAAAAAAAAAAAAAAAAAAAAAAAAAAAAAAAAAAAAAAAAAAAAAAAAAAAAAAAAAAAAAAAAAAAAAAAAAAAAAAAAAAAAAAAAAAAAAAAAAAAAAAAAAAAAAAAAAAAAAAAAAAAAAAAAAAAAAAAAAAAAAAAAAAAAAAAAAAAAAAAAAAAAAAAAAAAAAAAAAAAAAAAAAAAAAAAAAAAAAAAAAAAAAAAAAAAAAAAAAAAAAAAAAAAAAAAAAAAAAAAAAAAAAAAAAAAAAAAAAAAAAAAAAAAAAAAAAAAAAAAAAAAAAAAAAAAAAAAAAAAAAAAAAAAAAAAAAAAAAAAAAAAAAAAAAAAAAAAAAAAAAAAAAAAAAAAAAAAAAAAAAAAAAAAAAAAAAAAAAAAAAAAAAAAAAAAAAAAAAAAAAAAAAAAAAAAAAAAAAAAAAAAAAAAAAAAAAAAAAAAAAAAAAAAAAAAAAAAAAAAAAAAAAAAAAAAAAAAAAAAAAAAAAAAAAAAAAAAAAAAAAAAAAAAAAAAAAAAAAAAAAAAAAAAAAAAAAAAAAAAAAAAAAAAAAAAAAAAAAAAAAAAAAAAAAAAAAAAAAAAAAAAAAAAAAAAAAAAAAAAAAAAAAAAAAAAAAAAAAAAAAAAAAAAAAAAAAAAAAAAAAAAAAAAAAAAAAAAAAAAAAAAAAAAAAAAAAAAAAAAAAAAAAAAAAAAAAAAAAAAAAAAAAAAAAAAAAAAAAAAAAAAAAAAAAAAAAAAAAAAAAAAAAAAAAAAAAAAAAAAAAAAAAAAAAAAAAAAAAAAAAAAAAAAAAAAAAAAAAAAAAAAAAAAAAAAAAAAAAAAAAAAAAAAAAAAAAAAAAAAAAAAAAAAAAAAAAAAAAAAAAAAAAAAAAAAAAAAAAAAAAAAAAAAAAAAAAAAAAAAAAAAAAAAAAAAAAAAAAAAAAAAAAAAAAAAAAAAAAAAAAAAAAAAAAAAAAAAAAAAAAAAAAAAAAAAAAAAAAAAAAAAAAAAAAAAAAAAAAAAAAAAAAAAAAAAAAAAAAAAAAAAAAAAAAAAAAAAAAAAAAAAAAAAAAAAAAAAAAAAAAAAAAAAAAAAAAAAAAAAAAAAAAAAAAAAAAAAAAAAAAAAAAAAAAAAAAAAAAAAAAAAAAAAAAAAAAAAAAAAAAAAAAAAAAAAAAAAAAAAAAAAAAAAAAAAAAAAAAAAAAAAAAAAAAAAAAAAAAAAAAAAAAAAAAAAAAAAAAAAAAAAAAAAAAAAAAAAAAAAAAAAAAAAAAAAAAAAAAAAAAAAAAAAAAAAAAAAAAAAAAAAAAAAAAAAAAAAAAAAAAAAAAAAAAAAAAAAAAAAAAAAAAAAAAAAAAAAAAAAAAAAAAAAAAAAAAAAAAAAAAAAAAAAAAAAAAAAAAAAAAAAAAAAAAAAAAAAAAAAAAAAAAAAAAAAAAAAAAAAAAAAAAAAAAAAAAAAAAAAAAAAAAAAAAAAAAAAAAAAAAAAAAAAAAAAAAAAAAAAAAAAAAAAAAAAAAAAAAAAAAAAAAAAAAAAAAAAAAAAAAAAAAAAAAAAAAAAAAAAAAAAAAAAAAAAAAAAAAAAAAAAAAAAAAAAAAAAAAAAAAAAAAAAAAAAAAAAAAAAAAAAAAAAAAAAAAAAAAAAAAAAAAAAAAAAAAAAAAAAAAAAAAAAAAAAAAAAAAAAAAAAAAAAAAAAAAAAAAAAAAAAAAAAAAAAAAAAAAAAAAAAAAAAAAAAAAAAAAAAAAAAAAAAAAAAAAAAAAAAAAAAAAAAAAAAAAAAAAAAAAAAAAAAAAAAAAAAAAAAAAAAAAAAAAAAAAAAAAAAAAAAAAAAAAAAAAAAAAAAAAAAAAAAAAAAAAAAAAAAAAAAAAAAAAAAAAAAAAAAAAAAAAAAAAAAAAAAAAAAAAAAAAAAAAAAAAAAAAAAAAAAAAAAAAAAAAAAAAAAAAAAAAAAAAAAAAAAAAAAAAAAAAAAAAAAAAAAAAAAAAAAAAAAAAAAAAAAAAAAAAAAAAAAAAAAAAAAAAAAAAAAAAAAAAAAAAAAAAAAAAAAAAAAAAAAAAAAAAAAAAAAAAAAAAAAAAAAAAAAAAAAAAAAAAAAAAAAAAAAAAAAAAAAAAAAAAAAAAAAAAAAAAAAAAAAAAAAAAAAAAAAAAAAAAAAAAAAAAAAAAAAAAAAAAAAAAAAAAAAAAAAAAAAAAAAAAAAAAAAAAAAAAAAAAAAAAAAAAAAAAAAAAAAAAAAAAAAAAAAAAAAAAAAAAAAAAAAAAAAAAAAAAAAAAAAAAAAAAAAAAAAAAAAAAAAAAAAAAAAAAAAAAAAAAAAAAAAAAAAAAAAAAAAAAAAAAAAAAAAAAAAAAAAAAAAAAAAAAAAAAAAAAAAAAAAAAAAAAAAAAAAAAAAAAAAAAAAAAAAAAAAAAAAAAAAAAAAAAAAAAAAAAAAAAAAAAAAAAAAAAAAAAAAAAAAAAAAAAAAAAAAAAAAAAAAAAAAAAAAAAAAAAAAAAAAAAAAAAAAAAAAAAAAAAAAAAAAAAAAAAAAAAAAAAAAAAAAAAAAAAAAAAAAAAAAAAAAAAAAAAAAAAAAAAAAAAAAAAAAAAAAAAAAAAAAAAAAAAAAAAAAAAAAAAAAAAAAAAAAAAAAAAAAAAAAAAAAAAAAAAAAAAAAAAAAAAAAAAAAAAAAAAAAAAAAAAAAAAAAAAAAAAAAAAAAAAAAAAAAAAAAAAAAAAAAAAAAAAAAAAAAAAAAAAAAAAAAAAAAAAAAAAAAAAAAAAAAAAAAAAAAAAAAAAAAAAAAAAAAAAAAAAAAAAAAAAAAAAAAAAAAAAAAAAAAAAAAAAAAAAAAAAAAAAAAAAAAAAAAAAAAAAAAAAAAAAAAAAAAAAAAAAAAAAAAAAAAAAAAAAAAAAAAAAAAAAAAAAAAAAAAAAAAAAAAAAAAAAAAAAAAAAAAAAAAAAAAAAAAAAAAAAAAAAAAAAAAAAAAAAAAAAAAAAAAAAAAAAAAAAAAAAAAAAAAAAAAAAAAAAAAAAAAAAAAAAAAAAAAAAAAAAAAAAAAAAAAAAAAAAAAAAAAAAAAAAAAAAAAAAAAAAAAAAAAAAAAAAAAAAAAAAAAAAAAAAAAAAAAAAAAAAAAAAAAAAAAAAAAAAAAAAAAAAAAAAAAAAAAAAAAAAAAAAAAAAAAAAAAAAAAAAAAAAAAAAAAAAAAAAAAAAAAAAAAAAAAAAAAAAAAAAAAAAAAAAAAAAAAAAAAAAAAAAAAAAAAAAAAAAAAAAAAAAAAAAAAPZYQGDHw7LjzUJGMDLkJ3ijHnhYpp+UtxuL000dUm1WQAbsWV7oWh4S7N+2uecKHlfz7MpFhTaHEJsS3M5ZjUIR09A=</c2pa:manifest></metadata>
  <!-- Offerline icon set. Lucide (ISC), drawn at the brand's weight.
       Use: <svg class="icon"><use href="/icons.svg#i-job"/></svg>
       The stroke colour comes from currentColor, so an icon takes the
       colour of the text it sits beside and needs no per-theme variant. -->
  <symbol id="i-search" viewBox="0 0 24 24" fill="none"
          stroke="currentColor" stroke-width="1.75"
          stroke-linecap="round" stroke-linejoin="round">
    <path d="m21 21-4.34-4.34" />
  <circle cx="11" cy="11" r="8" />
  </symbol>
  <symbol id="i-bell" viewBox="0 0 24 24" fill="none"
          stroke="currentColor" stroke-width="1.75"
          stroke-linecap="round" stroke-linejoin="round">
    <path d="M10.268 21a2 2 0 0 0 3.464 0" />
  <path d="M3.262 15.326A1 1 0 0 0 4 17h16a1 1 0 0 0 .74-1.673C19.41 13.956 18 12.499 18 8A6 6 0 0 0 6 8c0 4.499-1.411 5.956-2.738 7.326" />
  </symbol>
  <symbol id="i-notification" viewBox="0 0 24 24" fill="none"
          stroke="currentColor" stroke-width="1.75"
          stroke-linecap="round" stroke-linejoin="round">
    <path d="M10.268 21a2 2 0 0 0 3.464 0" />
  <path d="M11.68 2.009A6 6 0 0 0 6 8c0 4.499-1.411 5.956-2.738 7.326A1 1 0 0 0 4 17h16a1 1 0 0 0 .74-1.673c-.824-.85-1.678-1.731-2.21-3.348" />
  <circle cx="18" cy="5" r="3" />
  </symbol>
  <symbol id="i-account" viewBox="0 0 24 24" fill="none"
          stroke="currentColor" stroke-width="1.75"
          stroke-linecap="round" stroke-linejoin="round">
    <path d="M17.925 20.056a6 6 0 0 0-11.851.001" />
  <circle cx="12" cy="11" r="4" />
  <circle cx="12" cy="12" r="10" />
  </symbol>
  <symbol id="i-settings" viewBox="0 0 24 24" fill="none"
          stroke="currentColor" stroke-width="1.75"
          stroke-linecap="round" stroke-linejoin="round">
    <path d="M9.671 4.136a2.34 2.34 0 0 1 4.659 0 2.34 2.34 0 0 0 3.319 1.915 2.34 2.34 0 0 1 2.33 4.033 2.34 2.34 0 0 0 0 3.831 2.34 2.34 0 0 1-2.33 4.033 2.34 2.34 0 0 0-3.319 1.915 2.34 2.34 0 0 1-4.659 0 2.34 2.34 0 0 0-3.32-1.915 2.34 2.34 0 0 1-2.33-4.033 2.34 2.34 0 0 0 0-3.831A2.34 2.34 0 0 1 6.35 6.051a2.34 2.34 0 0 0 3.319-1.915" />
  <circle cx="12" cy="12" r="3" />
  </symbol>
  <symbol id="i-sign-out" viewBox="0 0 24 24" fill="none"
          stroke="currentColor" stroke-width="1.75"
          stroke-linecap="round" stroke-linejoin="round">
    <path d="m16 17 5-5-5-5" />
  <path d="M21 12H9" />
  <path d="M9 21H5a2 2 0 0 1-2-2V5a2 2 0 0 1 2-2h4" />
  </symbol>
  <symbol id="i-menu" viewBox="0 0 24 24" fill="none"
          stroke="currentColor" stroke-width="1.75"
          stroke-linecap="round" stroke-linejoin="round">
    <path d="M4 5h16" />
  <path d="M4 12h16" />
  <path d="M4 19h16" />
  </symbol>
  <symbol id="i-close" viewBox="0 0 24 24" fill="none"
          stroke="currentColor" stroke-width="1.75"
          stroke-linecap="round" stroke-linejoin="round">
    <path d="M18 6 6 18" />
  <path d="m6 6 12 12" />
  </symbol>
  <symbol id="i-chevron-down" viewBox="0 0 24 24" fill="none"
          stroke="currentColor" stroke-width="1.75"
          stroke-linecap="round" stroke-linejoin="round">
    <path d="m6 9 6 6 6-6" />
  </symbol>
  <symbol id="i-chevron-right" viewBox="0 0 24 24" fill="none"
          stroke="currentColor" stroke-width="1.75"
          stroke-linecap="round" stroke-linejoin="round">
    <path d="m9 18 6-6-6-6" />
  </symbol>
  <symbol id="i-back" viewBox="0 0 24 24" fill="none"
          stroke="currentColor" stroke-width="1.75"
          stroke-linecap="round" stroke-linejoin="round">
    <path d="m12 19-7-7 7-7" />
  <path d="M19 12H5" />
  </symbol>
  <symbol id="i-forward" viewBox="0 0 24 24" fill="none"
          stroke="currentColor" stroke-width="1.75"
          stroke-linecap="round" stroke-linejoin="round">
    <path d="M5 12h14" />
  <path d="m12 5 7 7-7 7" />
  </symbol>
  <symbol id="i-job" viewBox="0 0 24 24" fill="none"
          stroke="currentColor" stroke-width="1.75"
          stroke-linecap="round" stroke-linejoin="round">
    <path d="M12 12h.01" />
  <path d="M16 6V4a2 2 0 0 0-2-2h-4a2 2 0 0 0-2 2v2" />
  <path d="M22 13a18.15 18.15 0 0 1-20 0" />
  <rect width="20" height="14" x="2" y="6" rx="2" />
  </symbol>
  <symbol id="i-internship" viewBox="0 0 24 24" fill="none"
          stroke="currentColor" stroke-width="1.75"
          stroke-linecap="round" stroke-linejoin="round">
    <path d="M21.42 10.922a1 1 0 0 0-.019-1.838L12.83 5.18a2 2 0 0 0-1.66 0L2.6 9.08a1 1 0 0 0 0 1.832l8.57 3.908a2 2 0 0 0 1.66 0z" />
  <path d="M22 10v6" />
  <path d="M6 12.5V16a6 3 0 0 0 12 0v-3.5" />
  </symbol>
  <symbol id="i-company" viewBox="0 0 24 24" fill="none"
          stroke="currentColor" stroke-width="1.75"
          stroke-linecap="round" stroke-linejoin="round">
    <path d="M10 12h4" />
  <path d="M10 8h4" />
  <path d="M14 21v-3a2 2 0 0 0-4 0v3" />
  <path d="M6 10H4a2 2 0 0 0-2 2v7a2 2 0 0 0 2 2h16a2 2 0 0 0 2-2V9a2 2 0 0 0-2-2h-2" />
  <path d="M6 21V5a2 2 0 0 1 2-2h8a2 2 0 0 1 2 2v16" />
  </symbol>
  <symbol id="i-location" viewBox="0 0 24 24" fill="none"
          stroke="currentColor" stroke-width="1.75"
          stroke-linecap="round" stroke-linejoin="round">
    <path d="M20 10c0 4.993-5.539 10.193-7.399 11.799a1 1 0 0 1-1.202 0C9.539 20.193 4 14.993 4 10a8 8 0 0 1 16 0" />
  <circle cx="12" cy="10" r="3" />
  </symbol>
  <symbol id="i-remote" viewBox="0 0 24 24" fill="none"
          stroke="currentColor" stroke-width="1.75"
          stroke-linecap="round" stroke-linejoin="round">
    <circle cx="12" cy="12" r="10" />
  <path d="M12 2a14.5 14.5 0 0 0 0 20 14.5 14.5 0 0 0 0-20" />
  <path d="M2 12h20" />
  </symbol>
  <symbol id="i-salary" viewBox="0 0 24 24" fill="none"
          stroke="currentColor" stroke-width="1.75"
          stroke-linecap="round" stroke-linejoin="round">
    <rect width="20" height="12" x="2" y="6" rx="2" />
  <circle cx="12" cy="12" r="2" />
  <path d="M6 12h.01M18 12h.01" />
  </symbol>
  <symbol id="i-deadline" viewBox="0 0 24 24" fill="none"
          stroke="currentColor" stroke-width="1.75"
          stroke-linecap="round" stroke-linejoin="round">
    <circle cx="12" cy="12" r="10" />
  <path d="M12 6v6l4 2" />
  </symbol>
  <symbol id="i-openings" viewBox="0 0 24 24" fill="none"
          stroke="currentColor" stroke-width="1.75"
          stroke-linecap="round" stroke-linejoin="round">
    <path d="M16 21v-2a4 4 0 0 0-4-4H6a4 4 0 0 0-4 4v2" />
  <path d="M16 3.128a4 4 0 0 1 0 7.744" />
  <path d="M22 21v-2a4 4 0 0 0-3-3.87" />
  <circle cx="9" cy="7" r="4" />
  </symbol>
  <symbol id="i-skills" viewBox="0 0 24 24" fill="none"
          stroke="currentColor" stroke-width="1.75"
          stroke-linecap="round" stroke-linejoin="round">
    <path d="M13.172 2a2 2 0 0 1 1.414.586l6.71 6.71a2.4 2.4 0 0 1 0 3.408l-4.592 4.592a2.4 2.4 0 0 1-3.408 0l-6.71-6.71A2 2 0 0 1 6 9.172V3a1 1 0 0 1 1-1z" />
  <path d="M2 7v6.172a2 2 0 0 0 .586 1.414l6.71 6.71a2.4 2.4 0 0 0 3.191.193" />
  <circle cx="10.5" cy="6.5" r=".5" fill="currentColor" />
  </symbol>
  <symbol id="i-posting" viewBox="0 0 24 24" fill="none"
          stroke="currentColor" stroke-width="1.75"
          stroke-linecap="round" stroke-linejoin="round">
    <path d="M11 6a13 13 0 0 0 8.4-2.8A1 1 0 0 1 21 4v12a1 1 0 0 1-1.6.8A13 13 0 0 0 11 14H5a2 2 0 0 1-2-2V8a2 2 0 0 1 2-2z" />
  <path d="M6 14a12 12 0 0 0 2.4 7.2 2 2 0 0 0 3.2-2.4A8 8 0 0 1 10 14" />
  <path d="M8 6v8" />
  </symbol>
  <symbol id="i-document" viewBox="0 0 24 24" fill="none"
          stroke="currentColor" stroke-width="1.75"
          stroke-linecap="round" stroke-linejoin="round">
    <path d="M6 22a2 2 0 0 1-2-2V4a2 2 0 0 1 2-2h8a2.4 2.4 0 0 1 1.704.706l3.588 3.588A2.4 2.4 0 0 1 20 8v12a2 2 0 0 1-2 2z" />
  <path d="M14 2v5a1 1 0 0 0 1 1h5" />
  <path d="M10 9H8" />
  <path d="M16 13H8" />
  <path d="M16 17H8" />
  </symbol>
  <symbol id="i-cv" viewBox="0 0 24 24" fill="none"
          stroke="currentColor" stroke-width="1.75"
          stroke-linecap="round" stroke-linejoin="round">
    <path d="M6 22a2 2 0 0 1-2-2V4a2 2 0 0 1 2-2h8a2.4 2.4 0 0 1 1.704.706l3.588 3.588A2.4 2.4 0 0 1 20 8v12a2 2 0 0 1-2 2z" />
  <path d="M14 2v5a1 1 0 0 0 1 1h5" />
  <path d="M16 22a4 4 0 0 0-8 0" />
  <circle cx="12" cy="15" r="3" />
  </symbol>
  <symbol id="i-upload" viewBox="0 0 24 24" fill="none"
          stroke="currentColor" stroke-width="1.75"
          stroke-linecap="round" stroke-linejoin="round">
    <path d="M12 3v12" />
  <path d="m17 8-5-5-5 5" />
  <path d="M21 15v4a2 2 0 0 1-2 2H5a2 2 0 0 1-2-2v-4" />
  </symbol>
  <symbol id="i-download" viewBox="0 0 24 24" fill="none"
          stroke="currentColor" stroke-width="1.75"
          stroke-linecap="round" stroke-linejoin="round">
    <path d="M12 15V3" />
  <path d="M21 15v4a2 2 0 0 1-2 2H5a2 2 0 0 1-2-2v-4" />
  <path d="m7 10 5 5 5-5" />
  </symbol>
  <symbol id="i-attachment" viewBox="0 0 24 24" fill="none"
          stroke="currentColor" stroke-width="1.75"
          stroke-linecap="round" stroke-linejoin="round">
    <path d="m16 6-8.414 8.586a2 2 0 0 0 2.829 2.829l8.414-8.586a4 4 0 1 0-5.657-5.657l-8.379 8.551a6 6 0 1 0 8.485 8.485l8.379-8.551" />
  </symbol>
  <symbol id="i-link" viewBox="0 0 24 24" fill="none"
          stroke="currentColor" stroke-width="1.75"
          stroke-linecap="round" stroke-linejoin="round">
    <path d="M10 13a5 5 0 0 0 7.54.54l3-3a5 5 0 0 0-7.07-7.07l-1.72 1.71" />
  <path d="M14 11a5 5 0 0 0-7.54-.54l-3 3a5 5 0 0 0 7.07 7.07l1.71-1.71" />
  </symbol>
  <symbol id="i-history" viewBox="0 0 24 24" fill="none"
          stroke="currentColor" stroke-width="1.75"
          stroke-linecap="round" stroke-linejoin="round">
    <path d="M3 12a9 9 0 1 0 9-9 9.75 9.75 0 0 0-6.74 2.74L3 8" />
  <path d="M3 3v5h5" />
  <path d="M12 7v5l4 2" />
  </symbol>
  <symbol id="i-interview" viewBox="0 0 24 24" fill="none"
          stroke="currentColor" stroke-width="1.75"
          stroke-linecap="round" stroke-linejoin="round">
    <path d="M8 2v3" />
  <path d="M16 2v3" />
  <rect x="3" y="3" width="18" height="18" rx="2" />
  <path d="M3 9h18" />
  <path d="m9 15 2 2 4-4" />
  </symbol>
  <symbol id="i-calendar" viewBox="0 0 24 24" fill="none"
          stroke="currentColor" stroke-width="1.75"
          stroke-linecap="round" stroke-linejoin="round">
    <path d="M8 2v3" />
  <path d="M16 2v3" />
  <rect x="3" y="3" width="18" height="18" rx="2" />
  <path d="M3 9h18" />
  <path d="M8 13h.01" />
  <path d="M12 13h.01" />
  <path d="M16 13h.01" />
  <path d="M8 17h.01" />
  <path d="M12 17h.01" />
  <path d="M16 17h.01" />
  </symbol>
  <symbol id="i-message" viewBox="0 0 24 24" fill="none"
          stroke="currentColor" stroke-width="1.75"
          stroke-linecap="round" stroke-linejoin="round">
    <path d="m22 7-8.991 5.727a2 2 0 0 1-2.009 0L2 7" />
  <rect x="2" y="4" width="20" height="16" rx="2" />
  </symbol>
  <symbol id="i-submitted" viewBox="0 0 24 24" fill="none"
          stroke="currentColor" stroke-width="1.75"
          stroke-linecap="round" stroke-linejoin="round">
    <path d="M10.1 2.182a10 10 0 0 1 3.8 0" />
  <path d="M13.9 21.818a10 10 0 0 1-3.8 0" />
  <path d="M17.609 3.721a10 10 0 0 1 2.69 2.7" />
  <path d="M2.182 13.9a10 10 0 0 1 0-3.8" />
  <path d="M20.279 17.609a10 10 0 0 1-2.7 2.69" />
  <path d="M21.818 10.1a10 10 0 0 1 0 3.8" />
  <path d="M3.721 6.391a10 10 0 0 1 2.7-2.69" />
  <path d="M6.391 20.279a10 10 0 0 1-2.69-2.7" />
  </symbol>
  <symbol id="i-under-review" viewBox="0 0 24 24" fill="none"
          stroke="currentColor" stroke-width="1.75"
          stroke-linecap="round" stroke-linejoin="round">
    <path d="M2.062 12.348a1 1 0 0 1 0-.696 10.75 10.75 0 0 1 19.876 0 1 1 0 0 1 0 .696 10.75 10.75 0 0 1-19.876 0" />
  <circle cx="12" cy="12" r="3" />
  </symbol>
  <symbol id="i-offer" viewBox="0 0 24 24" fill="none"
          stroke="currentColor" stroke-width="1.75"
          stroke-linecap="round" stroke-linejoin="round">
    <circle cx="12" cy="12" r="10" />
  <path d="m16 9-5.5 5.5L8 12" />
  </symbol>
  <symbol id="i-rejected" viewBox="0 0 24 24" fill="none"
          stroke="currentColor" stroke-width="1.75"
          stroke-linecap="round" stroke-linejoin="round">
    <circle cx="12" cy="12" r="10" />
  <path d="m15 9-6 6" />
  <path d="m9 9 6 6" />
  </symbol>
  <symbol id="i-withdrawn" viewBox="0 0 24 24" fill="none"
          stroke="currentColor" stroke-width="1.75"
          stroke-linecap="round" stroke-linejoin="round">
    <circle cx="12" cy="12" r="10" />
  <path d="M8 12h8" />
  </symbol>
  <symbol id="i-warning" viewBox="0 0 24 24" fill="none"
          stroke="currentColor" stroke-width="1.75"
          stroke-linecap="round" stroke-linejoin="round">
    <path d="m21.73 18-8-14a2 2 0 0 0-3.48 0l-8 14A2 2 0 0 0 4 21h16a2 2 0 0 0 1.73-3" />
  <path d="M12 9v4" />
  <path d="M12 17h.01" />
  </symbol>
  <symbol id="i-info" viewBox="0 0 24 24" fill="none"
          stroke="currentColor" stroke-width="1.75"
          stroke-linecap="round" stroke-linejoin="round">
    <circle cx="12" cy="12" r="10" />
  <path d="M12 16v-4" />
  <path d="M12 8h.01" />
  </symbol>
  <symbol id="i-verified" viewBox="0 0 24 24" fill="none"
          stroke="currentColor" stroke-width="1.75"
          stroke-linecap="round" stroke-linejoin="round">
    <path d="M3.85 8.62a4 4 0 0 1 4.78-4.77 4 4 0 0 1 6.74 0 4 4 0 0 1 4.78 4.78 4 4 0 0 1 0 6.74 4 4 0 0 1-4.77 4.78 4 4 0 0 1-6.75 0 4 4 0 0 1-4.78-4.77 4 4 0 0 1 0-6.76Z" />
  <path d="m16 9-5.5 5.5L8 12" />
  </symbol>
  <symbol id="i-pending" viewBox="0 0 24 24" fill="none"
          stroke="currentColor" stroke-width="1.75"
          stroke-linecap="round" stroke-linejoin="round">
    <circle cx="12" cy="12" r="10" />
  <path d="M17 12h.01" />
  <path d="M12 12h.01" />
  <path d="M7 12h.01" />
  </symbol>
  <symbol id="i-loading" viewBox="0 0 24 24" fill="none"
          stroke="currentColor" stroke-width="1.75"
          stroke-linecap="round" stroke-linejoin="round">
    <path d="M21 12a9 9 0 1 1-6.219-8.56" />
  </symbol>
  <symbol id="i-edit" viewBox="0 0 24 24" fill="none"
          stroke="currentColor" stroke-width="1.75"
          stroke-linecap="round" stroke-linejoin="round">
    <path d="M12 3H5a2 2 0 0 0-2 2v14a2 2 0 0 0 2 2h14a2 2 0 0 0 2-2v-7" />
  <path d="M18.375 2.625a1 1 0 0 1 3 3l-9.013 9.014a2 2 0 0 1-.853.505l-2.873.84a.5.5 0 0 1-.62-.62l.84-2.873a2 2 0 0 1 .506-.852z" />
  </symbol>
  <symbol id="i-delete" viewBox="0 0 24 24" fill="none"
          stroke="currentColor" stroke-width="1.75"
          stroke-linecap="round" stroke-linejoin="round">
    <path d="M10 11v6" />
  <path d="M14 11v6" />
  <path d="M19 6v14a2 2 0 0 1-2 2H7a2 2 0 0 1-2-2V6" />
  <path d="M3 6h18" />
  <path d="M8 6V4a2 2 0 0 1 2-2h4a2 2 0 0 1 2 2v2" />
  </symbol>
  <symbol id="i-filter" viewBox="0 0 24 24" fill="none"
          stroke="currentColor" stroke-width="1.75"
          stroke-linecap="round" stroke-linejoin="round">
    <path d="M2 5h20" />
  <path d="M6 12h12" />
  <path d="M9 19h6" />
  </symbol>
  <symbol id="i-sort" viewBox="0 0 24 24" fill="none"
          stroke="currentColor" stroke-width="1.75"
          stroke-linecap="round" stroke-linejoin="round">
    <path d="m21 16-4 4-4-4" />
  <path d="M17 20V4" />
  <path d="m3 8 4-4 4 4" />
  <path d="M7 4v16" />
  </symbol>
  <symbol id="i-add" viewBox="0 0 24 24" fill="none"
          stroke="currentColor" stroke-width="1.75"
          stroke-linecap="round" stroke-linejoin="round">
    <path d="M5 12h14" />
  <path d="M12 5v14" />
  </symbol>
  <symbol id="i-confirm" viewBox="0 0 24 24" fill="none"
          stroke="currentColor" stroke-width="1.75"
          stroke-linecap="round" stroke-linejoin="round">
    <path d="M20 6 9 17l-5-5" />
  </symbol>
  <symbol id="i-copy" viewBox="0 0 24 24" fill="none"
          stroke="currentColor" stroke-width="1.75"
          stroke-linecap="round" stroke-linejoin="round">
    <rect width="14" height="14" x="8" y="8" rx="2" ry="2" />
  <path d="M4 16c-1.1 0-2-.9-2-2V4c0-1.1.9-2 2-2h10c1.1 0 2 .9 2 2" />
  </symbol>
  <symbol id="i-export" viewBox="0 0 24 24" fill="none"
          stroke="currentColor" stroke-width="1.75"
          stroke-linecap="round" stroke-linejoin="round">
    <path d="M6 22a2 2 0 0 1-2-2V4a2 2 0 0 1 2-2h8a2.4 2.4 0 0 1 1.704.706l3.588 3.588A2.4 2.4 0 0 1 20 8v12a2 2 0 0 1-2 2z" />
  <path d="M14 2v5a1 1 0 0 0 1 1h5" />
  <path d="M12 18v-6" />
  <path d="m9 15 3 3 3-3" />
  </symbol>
  <symbol id="i-open-external" viewBox="0 0 24 24" fill="none"
          stroke="currentColor" stroke-width="1.75"
          stroke-linecap="round" stroke-linejoin="round">
    <path d="M15 3h6v6" />
  <path d="M10 14 21 3" />
  <path d="M18 13v6a2 2 0 0 1-2 2H5a2 2 0 0 1-2-2V8a2 2 0 0 1 2-2h6" />
  </symbol>
  <symbol id="i-bulk" viewBox="0 0 24 24" fill="none"
          stroke="currentColor" stroke-width="1.75"
          stroke-linecap="round" stroke-linejoin="round">
    <path d="M13 5h8" />
  <path d="M13 12h8" />
  <path d="M13 19h8" />
  <path d="m3 17 2 2 4-4" />
  <path d="m3 7 2 2 4-4" />
  </symbol>
  <symbol id="i-analytics" viewBox="0 0 24 24" fill="none"
          stroke="currentColor" stroke-width="1.75"
          stroke-linecap="round" stroke-linejoin="round">
    <path d="M3 3v16a2 2 0 0 0 2 2h16" />
  <path d="M18 17V9" />
  <path d="M13 17V5" />
  <path d="M8 17v-3" />
  </symbol>
  <symbol id="i-funnel" viewBox="0 0 24 24" fill="none"
          stroke="currentColor" stroke-width="1.75"
          stroke-linecap="round" stroke-linejoin="round">
    <path d="M10 20a1 1 0 0 0 .553.895l2 1A1 1 0 0 0 14 21v-7a2 2 0 0 1 .517-1.341L21.74 4.67A1 1 0 0 0 21 3H3a1 1 0 0 0-.742 1.67l7.225 7.989A2 2 0 0 1 10 14z" />
  </symbol>
  <symbol id="i-trend" viewBox="0 0 24 24" fill="none"
          stroke="currentColor" stroke-width="1.75"
          stroke-linecap="round" stroke-linejoin="round">
    <path d="M16 7h6v6" />
  <path d="m22 7-8.5 8.5-5-5L2 17" />
  </symbol>
  <symbol id="i-admin" viewBox="0 0 24 24" fill="none"
          stroke="currentColor" stroke-width="1.75"
          stroke-linecap="round" stroke-linejoin="round">
    <path d="M20 13c0 5-3.5 7.5-7.66 8.95a1 1 0 0 1-.67-.01C7.5 20.5 4 18 4 13V6a1 1 0 0 1 1-1c2 0 4.5-1.2 6.24-2.72a1.17 1.17 0 0 1 1.52 0C14.51 3.81 17 5 19 5a1 1 0 0 1 1 1z" />
  <path d="m9 12 2 2 4-4" />
  </symbol>
  <symbol id="i-suspend" viewBox="0 0 24 24" fill="none"
          stroke="currentColor" stroke-width="1.75"
          stroke-linecap="round" stroke-linejoin="round">
    <circle cx="12" cy="12" r="10" />
  <line x1="9" x2="15" y1="15" y2="9" />
  </symbol>
  <symbol id="i-approve" viewBox="0 0 24 24" fill="none"
          stroke="currentColor" stroke-width="1.75"
          stroke-linecap="round" stroke-linejoin="round">
    <path d="M15 5.88 14 10h5.83a2 2 0 0 1 1.92 2.56l-2.33 8A2 2 0 0 1 17.5 22H4a2 2 0 0 1-2-2v-8a2 2 0 0 1 2-2h2.76a2 2 0 0 0 1.79-1.11L12 2a3.13 3.13 0 0 1 3 3.88Z" />
  <path d="M7 10v12" />
  </symbol>
  <symbol id="i-theme-paper" viewBox="0 0 24 24" fill="none"
          stroke="currentColor" stroke-width="1.75"
          stroke-linecap="round" stroke-linejoin="round">
    <circle cx="12" cy="12" r="4" />
  <path d="M12 2v2M12 20v2M4.93 4.93l1.41 1.41M17.66 17.66l1.41 1.41M2 12h2M20 12h2M6.34 17.66l-1.41 1.41M19.07 4.93l-1.41 1.41" />
  </symbol>
  <symbol id="i-theme-ink" viewBox="0 0 24 24" fill="none"
          stroke="currentColor" stroke-width="1.75"
          stroke-linecap="round" stroke-linejoin="round">
    <path d="M12 3a6 6 0 0 0 9 9 9 9 0 1 1-9-9Z" />
  </symbol>
  <symbol id="i-theme-system" viewBox="0 0 24 24" fill="none"
          stroke="currentColor" stroke-width="1.75"
          stroke-linecap="round" stroke-linejoin="round">
    <rect x="2" y="3" width="20" height="14" rx="2" />
  <path d="M8 21h8M12 17v4" />
  </symbol>
  <symbol id="i-dashboard" viewBox="0 0 24 24" fill="none"
          stroke="currentColor" stroke-width="1.75"
          stroke-linecap="round" stroke-linejoin="round">
    <rect width="7" height="7" x="3" y="3" rx="1" />
    <rect width="7" height="7" x="14" y="3" rx="1" />
    <rect width="7" height="7" x="14" y="14" rx="1" />
    <rect width="7" height="7" x="3" y="14" rx="1" />
  </symbol>
  <symbol id="i-applications" viewBox="0 0 24 24" fill="none"
          stroke="currentColor" stroke-width="1.75"
          stroke-linecap="round" stroke-linejoin="round">
    <path d="M6 22a2 2 0 0 1-2-2V4a2 2 0 0 1 2-2h8a2.4 2.4 0 0 1 1.704.706l3.588 3.588A2.4 2.4 0 0 1 20 8v12a2 2 0 0 1-2 2z" />
    <path d="M14 2v5a1 1 0 0 0 1 1h5" />
    <path d="m9 15 2 2 4-4" />
  </symbol>
  <symbol id="i-file" viewBox="0 0 24 24" fill="none"
          stroke="currentColor" stroke-width="1.75"
          stroke-linecap="round" stroke-linejoin="round">
    <path d="M6 22a2 2 0 0 1-2-2V4a2 2 0 0 1 2-2h8a2.4 2.4 0 0 1 1.704.706l3.588 3.588A2.4 2.4 0 0 1 20 8v12a2 2 0 0 1-2 2z" />
    <path d="M14 2v5a1 1 0 0 0 1 1h5" />
  </symbol>
  <symbol id="i-folder" viewBox="0 0 24 24" fill="none"
          stroke="currentColor" stroke-width="1.75"
          stroke-linecap="round" stroke-linejoin="round">
    <path d="M20 20a2 2 0 0 0 2-2V8a2 2 0 0 0-2-2h-7.9a2 2 0 0 1-1.69-.9L9.6 3.9A2 2 0 0 0 7.93 3H4a2 2 0 0 0-2 2v13a2 2 0 0 0 2 2Z" />
  </symbol>
  <symbol id="i-date" viewBox="0 0 24 24" fill="none"
          stroke="currentColor" stroke-width="1.75"
          stroke-linecap="round" stroke-linejoin="round">
    <path d="M8 2v4" />
    <path d="M16 2v4" />
    <rect width="18" height="18" x="3" y="4" rx="2" />
    <path d="M3 10h18" />
  </symbol>
  <symbol id="i-star" viewBox="0 0 24 24" fill="none"
          stroke="currentColor" stroke-width="1.75"
          stroke-linecap="round" stroke-linejoin="round">
    <path d="M11.525 2.295a.53.53 0 0 1 .95 0l2.31 4.679a2.123 2.123 0 0 0 1.595 1.16l5.166.756a.53.53 0 0 1 .294.904l-3.736 3.638a2.123 2.123 0 0 0-.611 1.878l.882 5.14a.53.53 0 0 1-.771.56l-4.618-2.428a2.122 2.122 0 0 0-1.973 0L6.396 21.01a.53.53 0 0 1-.77-.56l.881-5.139a2.122 2.122 0 0 0-.611-1.879L2.16 9.795a.53.53 0 0 1 .294-.906l5.165-.755a2.122 2.122 0 0 0 1.597-1.16z" />
  </symbol>
  <symbol id="i-send" viewBox="0 0 24 24" fill="none"
          stroke="currentColor" stroke-width="1.75"
          stroke-linecap="round" stroke-linejoin="round">
    <path d="M14.536 21.686a.5.5 0 0 0 .937-.024l6.5-19a.496.496 0 0 0-.635-.635l-19 6.5a.5.5 0 0 0-.024.937l7.93 3.18a2 2 0 0 1 1.112 1.11z" />
    <path d="m21.854 2.147-10.94 10.939" />
  </symbol>
  <symbol id="i-save" viewBox="0 0 24 24" fill="none"
          stroke="currentColor" stroke-width="1.75"
          stroke-linecap="round" stroke-linejoin="round">
    <path d="M12 17V3" />
    <path d="m6 11 6 6 6-6" />
    <path d="M19 21H5" />
  </symbol>
  <symbol id="i-home" viewBox="0 0 24 24" fill="none"
          stroke="currentColor" stroke-width="1.75"
          stroke-linecap="round" stroke-linejoin="round">
    <path d="M15 21v-8a1 1 0 0 0-1-1h-4a1 1 0 0 0-1 1v8" />
    <path d="M3 10a2 2 0 0 1 .709-1.528l7-5.999a2 2 0 0 1 2.582 0l7 5.999A2 2 0 0 1 21 10v9a2 2 0 0 1-2 2H5a2 2 0 0 1-2-2z" />
  </symbol>
  <symbol id="i-person" viewBox="0 0 24 24" fill="none"
          stroke="currentColor" stroke-width="1.75"
          stroke-linecap="round" stroke-linejoin="round">
    <path d="M19 21v-2a4 4 0 0 0-4-4H9a4 4 0 0 0-4 4v2" />
    <circle cx="12" cy="7" r="4" />
  </symbol>
  <symbol id="i-lock" viewBox="0 0 24 24" fill="none"
          stroke="currentColor" stroke-width="1.75"
          stroke-linecap="round" stroke-linejoin="round">
    <rect width="18" height="11" x="3" y="11" rx="2" ry="2" />
    <path d="M7 11V7a5 5 0 0 1 10 0v4" />
  </symbol>
</svg>
